<svg xmlns="http://www.w3.org/2000/svg" version="1.1" width="18cm" height="18cm" viewBox="0 0 0.18 0.18">
<g fill="black"><g>
<rect x="0" y="0" width="0.01" height="0.01"/>
<rect x="0.01" y="0" width="0.01" height="0.01"/>
<rect x="0.02" y="0" width="0.01" height="0.01"/>
<rect x="0.03" y="0" width="0.01" height="0.01"/>
<rect x="0.04" y="0" width="0.01" height="0.01"/>
<rect x="0.05" y="0" width="0.01" height="0.01"/>
<rect x="0.06" y="0" width="0.01" height="0.01"/>
<rect x="0.07" y="0" width="0.01" height="0.01"/>
<rect x="0" y="0.01" width="0.01" height="0.01"/>
<rect x="0.03" y="0.01" width="0.01" height="0.01"/>
<rect x="0.05" y="0.01" width="0.01" height="0.01"/>
<rect x="0.07" y="0.01" width="0.01" height="0.01"/>
<rect x="0" y="0.02" width="0.01" height="0.01"/>
<rect x="0.01" y="0.02" width="0.01" height="0.01"/>
<rect x="0.05" y="0.02" width="0.01" height="0.01"/>
<rect x="0.07" y="0.02" width="0.01" height="0.01"/>
<rect x="0" y="0.03" width="0.01" height="0.01"/>
<rect x="0.01" y="0.03" width="0.01" height="0.01"/>
<rect x="0.04" y="0.03" width="0.01" height="0.01"/>
<rect x="0.05" y="0.03" width="0.01" height="0.01"/>
<rect x="0.06" y="0.03" width="0.01" height="0.01"/>
<rect x="0.07" y="0.03" width="0.01" height="0.01"/>
<rect x="0" y="0.04" width="0.01" height="0.01"/>
<rect x="0.02" y="0.04" width="0.01" height="0.01"/>
<rect x="0.04" y="0.04" width="0.01" height="0.01"/>
<rect x="0.05" y="0.04" width="0.01" height="0.01"/>
<rect x="0.06" y="0.04" width="0.01" height="0.01"/>
<rect x="0.07" y="0.04" width="0.01" height="0.01"/>
<rect x="0" y="0.05" width="0.01" height="0.01"/>
<rect x="0.01" y="0.05" width="0.01" height="0.01"/>
<rect x="0.03" y="0.05" width="0.01" height="0.01"/>
<rect x="0.06" y="0.05" width="0.01" height="0.01"/>
<rect x="0.07" y="0.05" width="0.01" height="0.01"/>
<rect x="0" y="0.06" width="0.01" height="0.01"/>
<rect x="0.01" y="0.06" width="0.01" height="0.01"/>
<rect x="0.02" y="0.06" width="0.01" height="0.01"/>
<rect x="0.03" y="0.06" width="0.01" height="0.01"/>
<rect x="0.05" y="0.06" width="0.01" height="0.01"/>
<rect x="0.06" y="0.06" width="0.01" height="0.01"/>
<rect x="0.07" y="0.06" width="0.01" height="0.01"/>
<rect x="0" y="0.07" width="0.01" height="0.01"/>
<rect x="0.01" y="0.07" width="0.01" height="0.01"/>
<rect x="0.02" y="0.07" width="0.01" height="0.01"/>
<rect x="0.03" y="0.07" width="0.01" height="0.01"/>
<rect x="0.04" y="0.07" width="0.01" height="0.01"/>
<rect x="0.05" y="0.07" width="0.01" height="0.01"/>
<rect x="0.06" y="0.07" width="0.01" height="0.01"/>
<rect x="0.07" y="0.07" width="0.01" height="0.01"/>
</g>
<g>
<rect x="0.09" y="0" width="0.01" height="0.01"/>
<rect x="0.1" y="0" width="0.01" height="0.01"/>
<rect x="0.11" y="0" width="0.01" height="0.01"/>
<rect x="0.12" y="0" width="0.01" height="0.01"/>
<rect x="0.13" y="0" width="0.01" height="0.01"/>
<rect x="0.14" y="0" width="0.01" height="0.01"/>
<rect x="0.15" y="0" width="0.01" height="0.01"/>
<rect x="0.16" y="0" width="0.01" height="0.01"/>
<rect x="0.09" y="0.01" width="0.01" height="0.01"/>
<rect x="0.12" y="0.01" width="0.01" height="0.01"/>
<rect x="0.15" y="0.01" width="0.01" height="0.01"/>
<rect x="0.16" y="0.01" width="0.01" height="0.01"/>
<rect x="0.09" y="0.02" width="0.01" height="0.01"/>
<rect x="0.1" y="0.02" width="0.01" height="0.01"/>
<rect x="0.12" y="0.02" width="0.01" height="0.01"/>
<rect x="0.16" y="0.02" width="0.01" height="0.01"/>
<rect x="0.09" y="0.03" width="0.01" height="0.01"/>
<rect x="0.14" y="0.03" width="0.01" height="0.01"/>
<rect x="0.15" y="0.03" width="0.01" height="0.01"/>
<rect x="0.16" y="0.03" width="0.01" height="0.01"/>
<rect x="0.09" y="0.04" width="0.01" height="0.01"/>
<rect x="0.1" y="0.04" width="0.01" height="0.01"/>
<rect x="0.13" y="0.04" width="0.01" height="0.01"/>
<rect x="0.14" y="0.04" width="0.01" height="0.01"/>
<rect x="0.15" y="0.04" width="0.01" height="0.01"/>
<rect x="0.16" y="0.04" width="0.01" height="0.01"/>
<rect x="0.09" y="0.05" width="0.01" height="0.01"/>
<rect x="0.11" y="0.05" width="0.01" height="0.01"/>
<rect x="0.14" y="0.05" width="0.01" height="0.01"/>
<rect x="0.16" y="0.05" width="0.01" height="0.01"/>
<rect x="0.09" y="0.06" width="0.01" height="0.01"/>
<rect x="0.1" y="0.06" width="0.01" height="0.01"/>
<rect x="0.11" y="0.06" width="0.01" height="0.01"/>
<rect x="0.13" y="0.06" width="0.01" height="0.01"/>
<rect x="0.14" y="0.06" width="0.01" height="0.01"/>
<rect x="0.16" y="0.06" width="0.01" height="0.01"/>
<rect x="0.09" y="0.07" width="0.01" height="0.01"/>
<rect x="0.1" y="0.07" width="0.01" height="0.01"/>
<rect x="0.11" y="0.07" width="0.01" height="0.01"/>
<rect x="0.12" y="0.07" width="0.01" height="0.01"/>
<rect x="0.13" y="0.07" width="0.01" height="0.01"/>
<rect x="0.14" y="0.07" width="0.01" height="0.01"/>
<rect x="0.15" y="0.07" width="0.01" height="0.01"/>
<rect x="0.16" y="0.07" width="0.01" height="0.01"/>
</g>
<g>
<rect x="0" y="0.09" width="0.01" height="0.01"/>
<rect x="0.01" y="0.09" width="0.01" height="0.01"/>
<rect x="0.02" y="0.09" width="0.01" height="0.01"/>
<rect x="0.03" y="0.09" width="0.01" height="0.01"/>
<rect x="0.04" y="0.09" width="0.01" height="0.01"/>
<rect x="0.05" y="0.09" width="0.01" height="0.01"/>
<rect x="0.06" y="0.09" width="0.01" height="0.01"/>
<rect x="0.07" y="0.09" width="0.01" height="0.01"/>
<rect x="0" y="0.1" width="0.01" height="0.01"/>
<rect x="0.03" y="0.1" width="0.01" height="0.01"/>
<rect x="0.07" y="0.1" width="0.01" height="0.01"/>
<rect x="0" y="0.11" width="0.01" height="0.01"/>
<rect x="0.01" y="0.11" width="0.01" height="0.01"/>
<rect x="0.03" y="0.11" width="0.01" height="0.01"/>
<rect x="0.04" y="0.11" width="0.01" height="0.01"/>
<rect x="0.06" y="0.11" width="0.01" height="0.01"/>
<rect x="0.07" y="0.11" width="0.01" height="0.01"/>
<rect x="0" y="0.12" width="0.01" height="0.01"/>
<rect x="0.02" y="0.12" width="0.01" height="0.01"/>
<rect x="0.03" y="0.12" width="0.01" height="0.01"/>
<rect x="0.04" y="0.12" width="0.01" height="0.01"/>
<rect x="0.05" y="0.12" width="0.01" height="0.01"/>
<rect x="0.06" y="0.12" width="0.01" height="0.01"/>
<rect x="0.07" y="0.12" width="0.01" height="0.01"/>
<rect x="0" y="0.13" width="0.01" height="0.01"/>
<rect x="0.01" y="0.13" width="0.01" height="0.01"/>
<rect x="0.02" y="0.13" width="0.01" height="0.01"/>
<rect x="0.04" y="0.13" width="0.01" height="0.01"/>
<rect x="0.05" y="0.13" width="0.01" height="0.01"/>
<rect x="0.07" y="0.13" width="0.01" height="0.01"/>
<rect x="0" y="0.14" width="0.01" height="0.01"/>
<rect x="0.01" y="0.14" width="0.01" height="0.01"/>
<rect x="0.02" y="0.14" width="0.01" height="0.01"/>
<rect x="0.03" y="0.14" width="0.01" height="0.01"/>
<rect x="0.05" y="0.14" width="0.01" height="0.01"/>
<rect x="0.06" y="0.14" width="0.01" height="0.01"/>
<rect x="0.07" y="0.14" width="0.01" height="0.01"/>
<rect x="0" y="0.15" width="0.01" height="0.01"/>
<rect x="0.01" y="0.15" width="0.01" height="0.01"/>
<rect x="0.02" y="0.15" width="0.01" height="0.01"/>
<rect x="0.06" y="0.15" width="0.01" height="0.01"/>
<rect x="0.07" y="0.15" width="0.01" height="0.01"/>
<rect x="0" y="0.16" width="0.01" height="0.01"/>
<rect x="0.01" y="0.16" width="0.01" height="0.01"/>
<rect x="0.02" y="0.16" width="0.01" height="0.01"/>
<rect x="0.03" y="0.16" width="0.01" height="0.01"/>
<rect x="0.04" y="0.16" width="0.01" height="0.01"/>
<rect x="0.05" y="0.16" width="0.01" height="0.01"/>
<rect x="0.06" y="0.16" width="0.01" height="0.01"/>
<rect x="0.07" y="0.16" width="0.01" height="0.01"/>
</g>
<g>
<rect x="0.09" y="0.09" width="0.01" height="0.01"/>
<rect x="0.1" y="0.09" width="0.01" height="0.01"/>
<rect x="0.11" y="0.09" width="0.01" height="0.01"/>
<rect x="0.12" y="0.09" width="0.01" height="0.01"/>
<rect x="0.13" y="0.09" width="0.01" height="0.01"/>
<rect x="0.14" y="0.09" width="0.01" height="0.01"/>
<rect x="0.15" y="0.09" width="0.01" height="0.01"/>
<rect x="0.16" y="0.09" width="0.01" height="0.01"/>
<rect x="0.09" y="0.1" width="0.01" height="0.01"/>
<rect x="0.13" y="0.1" width="0.01" height="0.01"/>
<rect x="0.14" y="0.1" width="0.01" height="0.01"/>
<rect x="0.16" y="0.1" width="0.01" height="0.01"/>
<rect x="0.09" y="0.11" width="0.01" height="0.01"/>
<rect x="0.1" y="0.11" width="0.01" height="0.01"/>
<rect x="0.11" y="0.11" width="0.01" height="0.01"/>
<rect x="0.12" y="0.11" width="0.01" height="0.01"/>
<rect x="0.16" y="0.11" width="0.01" height="0.01"/>
<rect x="0.09" y="0.12" width="0.01" height="0.01"/>
<rect x="0.11" y="0.12" width="0.01" height="0.01"/>
<rect x="0.12" y="0.12" width="0.01" height="0.01"/>
<rect x="0.16" y="0.12" width="0.01" height="0.01"/>
<rect x="0.09" y="0.13" width="0.01" height="0.01"/>
<rect x="0.11" y="0.13" width="0.01" height="0.01"/>
<rect x="0.13" y="0.13" width="0.01" height="0.01"/>
<rect x="0.14" y="0.13" width="0.01" height="0.01"/>
<rect x="0.16" y="0.13" width="0.01" height="0.01"/>
<rect x="0.09" y="0.14" width="0.01" height="0.01"/>
<rect x="0.12" y="0.14" width="0.01" height="0.01"/>
<rect x="0.13" y="0.14" width="0.01" height="0.01"/>
<rect x="0.15" y="0.14" width="0.01" height="0.01"/>
<rect x="0.16" y="0.14" width="0.01" height="0.01"/>
<rect x="0.09" y="0.15" width="0.01" height="0.01"/>
<rect x="0.1" y="0.15" width="0.01" height="0.01"/>
<rect x="0.13" y="0.15" width="0.01" height="0.01"/>
<rect x="0.14" y="0.15" width="0.01" height="0.01"/>
<rect x="0.15" y="0.15" width="0.01" height="0.01"/>
<rect x="0.16" y="0.15" width="0.01" height="0.01"/>
<rect x="0.09" y="0.16" width="0.01" height="0.01"/>
<rect x="0.1" y="0.16" width="0.01" height="0.01"/>
<rect x="0.11" y="0.16" width="0.01" height="0.01"/>
<rect x="0.12" y="0.16" width="0.01" height="0.01"/>
<rect x="0.13" y="0.16" width="0.01" height="0.01"/>
<rect x="0.14" y="0.16" width="0.01" height="0.01"/>
<rect x="0.15" y="0.16" width="0.01" height="0.01"/>
<rect x="0.16" y="0.16" width="0.01" height="0.01"/>
</g>
</g></svg>